<svg width="180" height="180" viewBox="0 0 180 180" fill="none" xmlns="http://www.w3.org/2000/svg">
<rect width="180" height="180" fill="#00AF46"/>
<g clip-path="url(#clip0_3353_110)">
<path d="M147.361 118.222C146.263 115.377 144.761 113.01 142.902 111.188C141.015 109.362 138.86 107.844 136.514 106.688C134.17 105.505 131.679 104.649 129.108 104.142C126.553 103.66 123.958 103.42 121.359 103.427C116.853 103.427 111.603 104.163 105.753 105.615L104.598 105.902L102.637 121.681L104.944 121.27C111.85 120.038 116.864 119.415 119.839 119.415C123.495 119.415 126.524 120.148 128.854 121.594C130.939 122.882 131.953 124.931 131.953 127.839C131.953 131.45 130.419 134.199 127.265 136.24C123.908 138.412 118.598 139.507 111.484 139.507C109.455 139.493 107.43 139.315 105.429 138.973C103.229 138.612 101.297 138.232 99.6852 137.846C98.0736 137.459 95.9694 136.791 93.3693 135.848C90.7326 134.894 88.8111 134.168 87.6478 133.693C86.4844 133.218 84.3483 132.326 81.2905 131.046C79.4554 130.28 78.0298 129.682 77.0137 129.253C79.6694 121.202 82.0597 109.021 84.1338 92.9859H84.725C88.7142 92.9859 93.026 92.4836 97.5396 91.4934C102.053 90.5032 106.735 88.8464 111.427 86.573C115.994 84.3794 120.271 81.6137 124.157 78.3407C127.98 75.0948 131.15 70.9505 133.582 66.0237C136.028 61.0679 137.268 55.6259 137.268 49.8474C137.268 42.4411 134.941 36.3115 130.354 31.6021C125.767 26.8926 119.013 24.4952 110.3 24.4952C105.3 24.4952 100.696 25.4065 96.6115 27.2066C92.5269 29.0066 89.0161 31.4701 86.1665 34.5372C83.3582 37.5609 80.8169 41.4332 78.6109 46.0492C76.4224 50.6364 74.6478 55.4147 73.309 60.3257C72.1011 64.7485 70.987 69.7913 69.9921 75.3364C63.9273 74.1208 58.8097 72.3416 54.7601 70.0409L52.9769 69.0265L47.6559 84.0967L48.9448 84.8164C53.6556 87.4489 59.9763 89.5887 67.7512 91.181C65.4705 106.897 63.5633 117.82 62.071 123.721C58.2662 122.734 54.7903 122.234 51.7198 122.234C45.2608 122.234 40.1639 123.75 36.5705 126.743C32.8737 129.816 31.0079 133.953 31.0079 139.042C31.0079 144.336 32.6242 148.461 35.8155 151.303C38.9417 154.09 43.1264 155.502 48.2678 155.502C57.7909 155.502 65.3894 151.074 70.8757 142.336C71.9512 142.853 73.5405 143.61 75.6437 144.606C79.084 146.234 81.4245 147.333 82.6653 147.905C83.9367 148.493 86.0807 149.387 89.2037 150.633C92.3267 151.879 94.895 152.768 96.8419 153.268C98.7491 153.752 101.041 154.254 103.663 154.747C106.188 155.232 108.751 155.485 111.321 155.502C118.344 155.502 124.682 154.536 130.159 152.628C135.758 150.678 140.33 147.545 143.762 143.318C147.244 139.026 149.006 133.759 149.006 127.67C149 124.212 148.448 121.038 147.361 118.222ZM86.4335 76.8063C88.5505 64.3879 91.381 55.1123 94.8569 49.2114C98.3534 43.2831 103.404 40.4011 110.297 40.4011C113.695 40.4011 116.271 41.2415 117.954 42.8983C119.637 44.5551 120.47 46.8977 120.47 50.0229C120.501 54.0642 119.392 58.0304 117.273 61.4543C115.149 64.9089 112.263 67.8176 108.843 69.9523C105.249 72.1931 101.363 73.9117 97.298 75.0578C93.7581 76.0766 90.1108 76.6636 86.4335 76.8063ZM51.5513 136.174C52.9102 136.174 54.5964 136.427 56.5831 136.928C54.4566 139.871 52.106 141.309 49.4407 141.309C46.4401 141.309 46.1906 140.105 46.1906 138.87C46.1906 138.132 46.1906 136.174 51.5513 136.174Z" fill="white"/>
</g>
<defs>
<clipPath id="clip0_3353_110">
<rect width="118" height="131" fill="white" transform="translate(31 24.5)"/>
</clipPath>
</defs>
</svg>
