<svg width="72" height="24" viewBox="0 0 72 24" fill="none" xmlns="http://www.w3.org/2000/svg">
<g clip-path="url(#clip0_3342_386)">
<path d="M46.3975 11.432L46.1889 11.262L44.0328 13.0941L44.328 13.3379C45.9066 14.6213 46.6702 16.1358 46.6702 17.9294C46.6898 18.3739 46.6141 18.8175 46.448 19.2304C46.282 19.6432 46.0296 20.0157 45.7076 20.3229C45.3642 20.637 44.962 20.8801 44.5242 21.0381C44.0864 21.1962 43.6217 21.2661 43.1568 21.2438C41.6905 21.2438 40.6381 20.6502 39.9483 19.431C39.2584 18.2117 38.8638 16.1326 38.8638 13.37V9.59352C41.3344 9.63524 44.3183 9.55823 47.7387 9.36892L48.0435 9.34967V6.52936L47.7034 6.54861C44.2959 6.73791 41.3216 6.81492 38.8638 6.77321V3.07054H35.8381V6.67054L31.1633 6.18925C30.65 6.11565 30.1321 6.07919 29.6135 6.08015C27.4082 6.04754 25.2503 6.72221 23.4563 8.00529C21.7963 9.17743 20.5487 10.8438 19.8916 12.7668L17.6039 12.2406L17.2253 14.4577C16.2937 14.489 15.3684 14.6224 14.4659 14.8556L14.251 14.9069L13.8884 17.7946L14.3151 17.7208C15.227 17.5366 16.1516 17.4229 17.0809 17.3807C17.6639 17.3589 18.2419 17.4964 18.7526 17.7786C18.9444 17.8982 19.0995 18.0684 19.2009 18.2705C19.3022 18.4726 19.3458 18.6987 19.3269 18.924C19.3351 19.235 19.2586 19.5423 19.1054 19.8131C18.9522 20.0839 18.7282 20.3078 18.4574 20.4609C17.8349 20.8588 16.8531 21.0609 15.528 21.0609C15.1517 21.0586 14.7762 21.0264 14.405 20.9646C13.9975 20.8973 13.6381 20.8299 13.3397 20.7561C12.9418 20.656 12.5498 20.5339 12.1654 20.3903C11.6777 20.2171 11.3216 20.0695 11.1066 19.9957C10.8916 19.9219 10.4938 19.7454 9.92584 19.5112L9.13011 19.1903C9.62423 17.7144 10.067 15.4812 10.452 12.5454H10.5611C11.3621 12.5381 12.16 12.4467 12.9419 12.2727C13.8293 12.0719 14.6906 11.7693 15.5087 11.3711C16.3562 10.9697 17.1496 10.463 17.8702 9.86305C18.6023 9.24273 19.1987 8.47816 19.6221 7.61706C20.0781 6.69683 20.3121 5.68255 20.3055 4.65555C20.327 4.04065 20.2245 3.42773 20.004 2.85332C19.7835 2.27892 19.4495 1.7548 19.0221 1.31224C18.1686 0.449141 16.9173 0.00956936 15.3002 0.00956936C14.4279 -0.00179237 13.5627 0.167532 12.759 0.506892C12.0327 0.818238 11.3776 1.27462 10.8339 1.84807C10.2664 2.47205 9.79693 3.17849 9.44134 3.94326C9.03512 4.78356 8.70544 5.65877 8.45631 6.55824C8.23171 7.37001 8.02637 8.29085 7.84027 9.30796C6.85369 9.1361 5.89997 8.81134 5.01354 8.34539L4.69268 8.15931L3.70444 10.9187L3.94508 11.0502C5.04393 11.6115 6.2206 12.0052 7.43599 12.2181C7.01246 15.1058 6.65631 17.0983 6.38038 18.1796C5.75234 18.0098 5.10573 17.9182 4.45524 17.9069C3.25845 17.9069 2.31193 18.1861 1.64455 18.7315C1.31087 19.0009 1.04398 19.3438 0.86476 19.7334C0.685537 20.123 0.598829 20.5488 0.611399 20.9775C0.58617 21.3944 0.653001 21.8117 0.807155 22.1999C0.961309 22.588 1.19901 22.9375 1.50338 23.2235C2.15171 23.7567 2.97503 24.03 3.81353 23.9903C5.58145 23.9903 6.99001 23.1785 8.01033 21.5807L8.89588 21.9946C9.53759 22.293 9.96754 22.4951 10.1986 22.5978C10.4296 22.7005 10.8403 22.8705 11.4114 23.0983C11.8738 23.2885 12.3474 23.4503 12.8296 23.5828C13.1825 23.6727 13.6093 23.7625 14.097 23.8524C14.5655 23.9419 15.0413 23.9881 15.5183 23.9903C16.7041 24.0086 17.8847 23.8308 19.0125 23.4641C19.9077 23.1695 20.7143 22.6542 21.3579 21.9657C22.6863 23.2812 24.6018 23.9486 27.0499 23.9486C28.6651 23.9742 30.265 23.6332 31.7294 22.9513C33.1938 22.2694 34.4845 21.2644 35.5044 20.0117L35.6905 19.7903L33.8777 17.8941L33.6467 18.1443C31.744 20.2074 29.5558 21.2534 27.1429 21.2534C25.5804 21.2534 24.3868 20.8395 23.5911 20.0245C22.7954 19.2096 22.3879 17.8908 22.3879 16.1069V15.9786C23.8224 16.2 25.2711 16.318 26.7226 16.3315C29.5718 16.3315 31.8563 15.8695 33.5119 14.9518C34.683 14.3101 35.4627 13.4663 35.8349 12.4459V13.3187C35.8349 17.047 36.4349 19.7743 37.6189 21.4299C38.8028 23.0855 40.6702 23.9775 43.0991 23.9775C45.0627 23.9775 46.6734 23.4192 47.8895 22.3122C48.4947 21.76 48.9728 21.083 49.2908 20.328C49.6087 19.5729 49.759 18.7578 49.7312 17.939C49.7248 15.4395 48.605 13.2481 46.3975 11.432ZM31.5066 12.8727C30.4028 13.354 28.7921 13.5978 26.7162 13.5978C25.4278 13.5938 24.1412 13.4995 22.8659 13.3155C23.3138 12.0439 24.1444 10.9421 25.2435 10.1614C26.5092 9.27614 28.0244 8.81756 29.5686 8.85235C30.6916 8.85235 31.5707 9.04807 32.1772 9.43631C32.4445 9.59154 32.6646 9.81658 32.8138 10.0873C32.963 10.3581 33.0358 10.6643 33.0242 10.9732C33.0371 11.8042 32.5429 12.4235 31.5066 12.8727ZM10.8788 9.58391C11.2734 7.30904 11.7996 5.60851 12.4445 4.52722C12.7245 4.0188 13.1414 3.59901 13.6478 3.31546C14.1542 3.0319 14.73 2.89592 15.3098 2.92294C15.8254 2.88339 16.336 3.04818 16.7312 3.38176C16.8948 3.55475 17.0207 3.75991 17.1008 3.98417C17.1809 4.20844 17.2135 4.44691 17.1964 4.68444C17.2025 5.42516 16.9965 6.15217 16.6028 6.77963C16.2091 7.41288 15.6743 7.94655 15.0403 8.33899C14.3724 8.74768 13.6511 9.06188 12.897 9.27267C12.2389 9.45579 11.5614 9.56027 10.8788 9.58391ZM4.4039 20.4609C4.72061 20.4691 5.03518 20.5154 5.34081 20.5989C4.94615 21.1379 4.50979 21.401 4.01246 21.401C3.45738 21.401 3.40926 21.1796 3.40926 20.955C3.40926 20.8203 3.40925 20.4609 4.4039 20.4609Z" fill="white"/>
<path d="M71.408 6.58076H68.3599L68.039 7.96366C67.4699 10.1454 66.6517 12.2545 65.6005 14.2492C64.6813 16.0882 63.5284 17.8007 62.1706 19.3444C61.0123 20.5989 60.0304 21.2375 59.2476 21.2375C59.1005 21.2483 58.9536 21.215 58.8255 21.1418C58.6975 21.0686 58.5942 20.9589 58.5288 20.8268C58.3096 20.2948 58.2152 19.7196 58.2529 19.1455C58.3215 17.7478 58.4694 16.3552 58.6957 14.9743C58.9408 13.4708 59.0919 11.9534 59.1481 10.431C59.1481 6.85348 57.2679 6.09947 55.6925 6.09947C54.8995 6.08979 54.1168 6.28025 53.4169 6.6532C52.717 7.02614 52.1224 7.56955 51.6882 8.23317C50.7 9.61285 50.2026 11.3872 50.2026 13.5016C50.2291 15.7976 50.7638 18.0593 51.7684 20.1241L51.8936 20.3936L54.5823 19.4022L54.4315 19.0813C53.5762 17.2994 53.1269 15.3498 53.116 13.3733C53.0787 12.234 53.3234 11.1032 53.8283 10.0813C54.2743 9.2567 54.7909 8.85563 55.3941 8.85563C55.7534 8.85563 55.8754 8.99681 55.9427 9.12195C56.0101 9.24708 56.1385 9.68023 56.1385 10.585C56.0915 12.0108 55.9435 13.4315 55.6957 14.8364C55.4439 16.2743 55.2938 17.7282 55.2465 19.1872C55.2465 22.3957 56.3663 24 58.5738 24C60.1171 24 61.7117 23.2107 63.3096 21.6546C64.7138 20.2435 65.9136 18.643 66.8743 16.8995L66.8422 17.6471C66.8427 19.5464 67.0503 21.4399 67.4615 23.2941L67.516 23.5476H70.6219L70.5128 23.1433C70.0502 21.254 69.8345 19.3127 69.8711 17.3679C69.9283 13.8565 70.4044 10.3644 71.2893 6.96579L71.408 6.58076Z" fill="white"/>
</g>
<defs>
<clipPath id="clip0_3342_386">
<rect width="70.816" height="24" fill="white" transform="translate(0.592041)"/>
</clipPath>
</defs>
</svg>
