<svg width="71" height="24" viewBox="0 0 71 24" fill="none" xmlns="http://www.w3.org/2000/svg">
<g clip-path="url(#clip0_3366_125)">
<path d="M45.8053 11.4321L45.5968 11.262L43.4406 13.0941L43.7358 13.338C45.3144 14.6214 46.0781 16.1358 46.0781 17.9294C46.0977 18.374 46.0219 18.8176 45.8559 19.2304C45.6899 19.6433 45.4374 20.0158 45.1155 20.323C44.772 20.6371 44.3698 20.8802 43.9321 21.0382C43.4943 21.1962 43.0296 21.2661 42.5647 21.2439C41.0984 21.2439 40.046 20.6503 39.3561 19.431C38.6663 18.2118 38.2717 16.1326 38.2717 13.3701V9.59359C40.7422 9.6353 43.7262 9.55829 47.1465 9.36898L47.4513 9.34973V6.52942L47.1112 6.54867C43.7037 6.73797 40.7294 6.81498 38.2717 6.77327V3.07061H35.246V6.6706L30.5711 6.18931C30.0578 6.11572 29.5399 6.07925 29.0214 6.08021C26.816 6.0476 24.6582 6.72227 22.8642 8.00535C21.2041 9.1775 19.9566 10.8439 19.2995 12.7669L17.0118 12.2406L16.6332 14.4578C15.7016 14.4891 14.7763 14.6225 13.8738 14.8556L13.6588 14.907L13.2962 17.7947L13.723 17.7209C14.6348 17.5367 15.5595 17.423 16.4888 17.3808C17.0718 17.3589 17.6497 17.4965 18.1604 17.7786C18.3523 17.8982 18.5074 18.0685 18.6087 18.2706C18.71 18.4726 18.7537 18.6988 18.7348 18.9241C18.743 19.2351 18.6664 19.5424 18.5132 19.8132C18.3601 20.0839 18.136 20.3079 17.8652 20.461C17.2428 20.8588 16.261 21.061 14.9358 21.061C14.5595 21.0586 14.184 21.0264 13.8128 20.9647C13.4053 20.8973 13.046 20.83 12.7476 20.7562C12.3497 20.6561 11.9576 20.534 11.5733 20.3904C11.0856 20.2171 10.7294 20.0695 10.5144 19.9957C10.2995 19.9219 9.9016 19.7455 9.33369 19.5112L8.53796 19.1904C9.03208 17.7145 9.47486 15.4813 9.85989 12.5455H9.96898C10.7699 12.5381 11.5679 12.4467 12.3497 12.2727C13.2372 12.0719 14.0985 11.7694 14.9166 11.3711C15.764 10.9698 16.5574 10.4631 17.2781 9.86311C18.0102 9.24279 18.6065 8.47822 19.0299 7.61712C19.4859 6.69689 19.72 5.68261 19.7134 4.65561C19.7349 4.04071 19.6323 3.42779 19.4118 2.85339C19.1913 2.27898 18.8574 1.75486 18.4299 1.3123C17.5765 0.449202 16.3251 0.0096304 14.708 0.0096304C13.8357 -0.00173134 12.9705 0.167593 12.1668 0.506953C11.4405 0.818299 10.7854 1.27468 10.2417 1.84813C9.67429 2.47212 9.20479 3.17855 8.8492 3.94332C8.44297 4.78362 8.11329 5.65883 7.86417 6.5583C7.63957 7.37007 7.43423 8.29091 7.24813 9.30802C6.26155 9.13616 5.30783 8.8114 4.42139 8.34545L4.10054 8.15937L3.1123 10.9187L3.35294 11.0503C4.45179 11.6116 5.62846 12.0052 6.84385 12.2182C6.42032 15.1059 6.06417 17.0984 5.78823 18.1797C5.16019 18.0099 4.51359 17.9183 3.8631 17.907C2.66631 17.907 1.71979 18.1861 1.05241 18.7316C0.718724 19.001 0.451838 19.3439 0.272614 19.7335C0.0933908 20.1231 0.00668335 20.5489 0.019253 20.9776C-0.00597553 21.3944 0.0608554 21.8118 0.215009 22.1999C0.369163 22.5881 0.606862 22.9376 0.911231 23.2235C1.55956 23.7568 2.38289 24.03 3.22139 23.9904C4.9893 23.9904 6.39786 23.1786 7.41818 21.5807L8.30374 21.9947C8.94545 22.2931 9.37539 22.4952 9.60641 22.5979C9.83743 22.7005 10.2481 22.8706 10.8193 23.0984C11.2817 23.2886 11.7553 23.4504 12.2374 23.5829C12.5904 23.6727 13.0171 23.7626 13.5048 23.8524C13.9734 23.942 14.4492 23.9881 14.9262 23.9904C16.1119 24.0086 17.2925 23.8309 18.4203 23.4642C19.3156 23.1696 20.1222 22.6543 20.7658 21.9658C22.0941 23.2813 24.0096 23.9487 26.4578 23.9487C28.0729 23.9742 29.6729 23.6333 31.1372 22.9514C32.6016 22.2695 33.8923 21.2644 34.9123 20.0118L35.0984 19.7904L33.2856 17.8941L33.0545 18.1444C31.1519 20.2075 28.9636 21.2535 26.5508 21.2535C24.9882 21.2535 23.7946 20.8396 22.9989 20.0246C22.2032 19.2096 21.7957 17.8909 21.7957 16.107V15.9786C23.2303 16.2001 24.679 16.318 26.1305 16.3316C28.9797 16.3316 31.2642 15.8695 32.9198 14.9519C34.0909 14.3102 34.8706 13.4663 35.2428 12.446V13.3187C35.2428 17.0471 35.8428 19.7743 37.0267 21.43C38.2107 23.0856 40.0781 23.9775 42.5069 23.9775C44.4706 23.9775 46.0813 23.4193 47.2973 22.3123C47.9025 21.7601 48.3806 21.0831 48.6986 20.328C49.0166 19.573 49.1669 18.7579 49.139 17.939C49.1326 15.4396 48.0128 13.2481 45.8053 11.4321ZM30.9144 12.8727C29.8107 13.354 28.2 13.5979 26.1241 13.5979C24.8356 13.5939 23.549 13.4995 22.2738 13.3155C22.7217 12.0439 23.5522 10.9422 24.6513 10.1615C25.9171 9.2762 27.4322 8.81762 28.9765 8.85241C30.0995 8.85241 30.9786 9.04813 31.585 9.43637C31.8524 9.5916 32.0724 9.81664 32.2216 10.0874C32.3709 10.3581 32.4436 10.6643 32.4321 10.9733C32.4449 11.8043 31.9508 12.4235 30.9144 12.8727ZM10.2866 9.58397C10.6813 7.3091 11.2075 5.60857 11.8524 4.52728C12.1324 4.01886 12.5492 3.59907 13.0557 3.31552C13.5621 3.03196 14.1379 2.89598 14.7176 2.923C15.2333 2.88345 15.7438 3.04825 16.139 3.38183C16.3027 3.55481 16.4286 3.75997 16.5087 3.98423C16.5888 4.2085 16.6213 4.44697 16.6043 4.6845C16.6103 5.42522 16.4044 6.15223 16.0107 6.7797C15.617 7.41294 15.0822 7.94661 14.4481 8.33905C13.7802 8.74774 13.0589 9.06194 12.3048 9.27273C11.6467 9.45585 10.9693 9.56033 10.2866 9.58397ZM3.81176 20.461C4.12846 20.4692 4.44303 20.5155 4.74866 20.5989C4.35401 21.138 3.91764 21.4011 3.42031 21.4011C2.86523 21.4011 2.81711 21.1797 2.81711 20.9551C2.81711 20.8203 2.81711 20.461 3.81176 20.461Z" fill="#00AF46"/>
<path d="M70.816 6.58073H67.7679L67.4471 7.96363C66.8779 10.1454 66.0597 12.2544 65.0086 14.2492C64.0893 16.0881 62.9365 17.8007 61.5786 19.3444C60.4203 20.5989 59.4385 21.2374 58.6556 21.2374C58.5085 21.2482 58.3616 21.2149 58.2336 21.1418C58.1055 21.0686 58.0022 20.9589 57.9369 20.8267C57.7176 20.2948 57.6232 19.7196 57.661 19.1454C57.7296 17.7478 57.8774 16.3552 58.1037 14.9743C58.3489 13.4708 58.5 11.9534 58.5561 10.431C58.5561 6.85345 56.6759 6.09944 55.1005 6.09944C54.3075 6.08976 53.5249 6.28022 52.825 6.65316C52.1251 7.02611 51.5305 7.56952 51.0962 8.23314C50.108 9.61282 49.6107 11.3871 49.6107 13.5016C49.6371 15.7976 50.1718 18.0593 51.1765 20.124L51.3016 20.3936L53.9904 19.4021L53.8396 19.0813C52.9842 17.2993 52.5349 15.3498 52.5241 13.3733C52.4868 12.234 52.7315 11.1032 53.2364 10.0813C53.6824 9.25667 54.1989 8.8556 54.8021 8.8556C55.1615 8.8556 55.2834 8.99678 55.3508 9.12192C55.4182 9.24705 55.5465 9.6802 55.5465 10.585C55.4996 12.0108 55.3516 13.4315 55.1037 14.8364C54.8519 16.2743 54.7018 17.7281 54.6545 19.1872C54.6545 22.3957 55.7743 24 57.9818 24C59.5251 24 61.1198 23.2107 62.7176 21.6545C64.1218 20.2435 65.3217 18.643 66.2823 16.8995L66.2503 17.6471C66.2507 19.5463 66.4584 21.4399 66.8695 23.2941L66.9241 23.5476H70.0299L69.9209 23.1433C69.4582 21.254 69.2425 19.3127 69.2791 17.3679C69.3363 13.8565 69.8124 10.3644 70.6973 6.96576L70.816 6.58073Z" fill="#00AF46"/>
</g>
<defs>
<clipPath id="clip0_3366_125">
<rect width="70.816" height="24" fill="white"/>
</clipPath>
</defs>
</svg>
