<svg width="30" height="30" viewBox="0 0 30 30" fill="none" xmlns="http://www.w3.org/2000/svg">
<rect width="30" height="30" fill="#DB001D"/>
<path d="M10.625 9.75V7.125C10.625 6.89294 10.7172 6.67038 10.8813 6.50628C11.0454 6.34219 11.2679 6.25 11.5 6.25H18.5C18.7321 6.25 18.9546 6.34219 19.1187 6.50628C19.2828 6.67038 19.375 6.89294 19.375 7.125V9.75H23.75V11.5H22V22.875C22 23.1071 21.9078 23.3296 21.7437 23.4937C21.5796 23.6578 21.3571 23.75 21.125 23.75H8.875C8.64294 23.75 8.42038 23.6578 8.25628 23.4937C8.09219 23.3296 8 23.1071 8 22.875V11.5H6.25V9.75H10.625ZM12.375 8V9.75H17.625V8H12.375Z" fill="white"/>
</svg>
