<svg width="24" height="24" viewBox="0 0 24 24" fill="none" xmlns="http://www.w3.org/2000/svg">
<path d="M14.37 1.57797C13.245 1.26447 12.366 2.10297 12.0525 2.88447C11.6925 3.78447 11.373 4.41597 10.9935 5.17047C10.7196 5.71186 10.4531 6.25691 10.194 6.80547C9.48147 8.32047 8.77197 9.28947 8.25447 9.87297C8.06659 10.0882 7.86357 10.2897 7.64698 10.476C7.5978 10.5181 7.54727 10.5586 7.49548 10.5975L7.47148 10.6155L4.66348 12.27C4.05558 12.6286 3.59359 13.1901 3.35875 13.8556C3.1239 14.5212 3.13124 15.2483 3.37948 15.909L4.15948 17.985C4.31963 18.4115 4.57481 18.7959 4.90566 19.1091C5.23651 19.4222 5.63434 19.656 6.06898 19.7925L14.103 22.3155C14.5784 22.4649 15.0788 22.518 15.575 22.4718C16.0711 22.4256 16.5531 22.2809 16.9928 22.0463C17.4324 21.8117 17.8209 21.4918 18.1354 21.1053C18.45 20.7189 18.6844 20.2736 18.825 19.7955L20.871 12.825C21.0022 12.3776 21.0274 11.9058 20.9445 11.447C20.8616 10.9881 20.6728 10.555 20.3933 10.1818C20.1138 9.80867 19.7511 9.50581 19.3341 9.29727C18.9171 9.08874 18.4572 8.98027 17.991 8.98047H15.915C16.014 8.63997 16.1145 8.26197 16.2075 7.87047C16.404 7.02747 16.572 6.06597 16.5555 5.26347C16.542 4.51797 16.4655 3.73497 16.1595 3.07047C15.831 2.35797 15.2565 1.82247 14.3715 1.57647" fill="#00AF46"/>
</svg>
