<svg width="30" height="30" viewBox="0 0 30 30" fill="none" xmlns="http://www.w3.org/2000/svg">
<rect width="30" height="30" fill="#0A0A0A"/>
<g clip-path="url(#clip0_3414_78)">
<path d="M19.0248 6.17508C18.9691 6.11921 18.9029 6.07488 18.83 6.04463C18.7571 6.01438 18.6789 5.99881 18.6 5.99881C18.5211 5.99881 18.4429 6.01438 18.37 6.04463C18.2971 6.07488 18.2309 6.11921 18.1752 6.17508L6 18.3515V23.3999C6 23.559 6.06321 23.7116 6.17574 23.8241C6.28826 23.9367 6.44087 23.9999 6.6 23.9999H11.6484L23.8248 11.8247C23.8807 11.7689 23.925 11.7027 23.9553 11.6298C23.9855 11.5569 24.0011 11.4788 24.0011 11.3999C24.0011 11.321 23.9855 11.2428 23.9553 11.1699C23.925 11.097 23.8807 11.0308 23.8248 10.9751L19.0248 6.17508Z" fill="white"/>
</g>
<defs>
<clipPath id="clip0_3414_78">
<rect width="18" height="18" fill="white" transform="translate(6 6)"/>
</clipPath>
</defs>
</svg>
