<svg width="30" height="30" viewBox="0 0 30 30" fill="none" xmlns="http://www.w3.org/2000/svg">
<rect width="30" height="30" fill="#0A0A0A"/>
<path fill-rule="evenodd" clip-rule="evenodd" d="M7.998 11.1317C9.729 9.81625 12.198 8.58334 15 8.58334C17.802 8.58334 20.27 9.81625 22.002 11.1317C22.7852 11.7197 23.4888 12.3915 24.098 13.1328C24.351 13.4481 24.563 13.7579 24.716 14.0467C24.856 14.3088 25 14.6498 25 15C25 15.3502 24.855 15.6912 24.716 15.9533C24.54 16.2742 24.3332 16.58 24.098 16.8673C23.4888 17.6085 22.7852 18.2803 22.002 18.8683C20.271 20.1838 17.802 21.4167 15 21.4167C12.198 21.4167 9.73 20.1838 7.998 18.8683C7.21482 18.2803 6.51116 17.6085 5.902 16.8673C5.66682 16.58 5.46 16.2742 5.284 15.9533C5.144 15.6912 5 15.3502 5 15C5 14.6498 5.145 14.3088 5.284 14.0467C5.437 13.7579 5.649 13.4481 5.902 13.1328C6.51116 12.3915 7.21482 11.7197 7.998 11.1317ZM15 17.75C15.7956 17.75 16.5587 17.4603 17.1213 16.9445C17.6839 16.4288 18 15.7293 18 15C18 14.2707 17.6839 13.5712 17.1213 13.0555C16.5587 12.5397 15.7956 12.25 15 12.25C14.2044 12.25 13.4413 12.5397 12.8787 13.0555C12.3161 13.5712 12 14.2707 12 15C12 15.7293 12.3161 16.4288 12.8787 16.9445C13.4413 17.4603 14.2044 17.75 15 17.75Z" fill="white"/>
</svg>
