<svg width="25" height="24" viewBox="0 0 25 24" fill="none" xmlns="http://www.w3.org/2000/svg">
<path fill-rule="evenodd" clip-rule="evenodd" d="M2.5 9.99997C2.49991 9.28102 2.65487 8.57049 2.95432 7.91686C3.25377 7.26323 3.69065 6.68186 4.23518 6.21241C4.77972 5.74296 5.41909 5.39646 6.10969 5.19654C6.8003 4.99663 7.52589 4.948 8.237 5.05397C8.5394 4.16329 9.11319 3.38969 9.87779 2.84182C10.6424 2.29395 11.5594 1.99933 12.5 1.99933C13.4406 1.99933 14.3576 2.29395 15.1222 2.84182C15.8868 3.38969 16.4606 4.16329 16.763 5.05397C17.003 5.01797 17.2487 4.99997 17.5 4.99997C18.6493 4.99922 19.7638 5.39442 20.6558 6.11906C21.5479 6.84369 22.1631 7.85352 22.3978 8.97857C22.6326 10.1036 22.4726 11.2752 21.9448 12.2961C21.4171 13.3171 20.5537 14.125 19.5 14.584V18C19.5 19.886 19.5 20.828 18.914 21.414C18.328 22 17.386 22 15.5 22H9.5C7.614 22 6.672 22 6.086 21.414C5.5 20.828 5.5 19.886 5.5 18V14.584C4.60811 14.1947 3.8492 13.5537 3.31631 12.7394C2.78342 11.9252 2.49972 10.9731 2.5 9.99997ZM9.5 17.25C9.30109 17.25 9.11032 17.329 8.96967 17.4696C8.82902 17.6103 8.75 17.8011 8.75 18C8.75 18.1989 8.82902 18.3897 8.96967 18.5303C9.11032 18.671 9.30109 18.75 9.5 18.75H15.5C15.6989 18.75 15.8897 18.671 16.0303 18.5303C16.171 18.3897 16.25 18.1989 16.25 18C16.25 17.8011 16.171 17.6103 16.0303 17.4696C15.8897 17.329 15.6989 17.25 15.5 17.25H9.5Z" fill="#00AF46"/>
</svg>
