<svg width="25" height="24" viewBox="0 0 25 24" fill="none" xmlns="http://www.w3.org/2000/svg">
<path d="M14.1665 7.125C14.1665 5.63316 14.7591 4.20242 15.814 3.14752C16.8689 2.09263 18.2997 1.5 19.7915 1.5H20.1665C20.3654 1.5 20.5562 1.57902 20.6968 1.71967C20.8375 1.86032 20.9165 2.05109 20.9165 2.25V11.25C20.9165 11.3685 20.9465 11.751 21.005 12.3495C21.0605 12.927 21.1363 13.6568 21.2173 14.4345L21.227 14.5267C21.4295 16.4752 21.6665 18.7612 21.6665 19.5C21.6665 20.2956 21.3504 21.0587 20.7878 21.6213C20.2252 22.1839 19.4622 22.5 18.6665 22.5C17.8709 22.5 17.1078 22.1839 16.5452 21.6213C15.9826 21.0587 15.6665 20.2956 15.6665 19.5C15.6665 18.8715 15.8368 16.9747 16.01 15.1965C16.1293 13.9702 16.253 12.7665 16.3333 12H16.0415C15.5442 12 15.0673 11.8025 14.7157 11.4508C14.364 11.0992 14.1665 10.6223 14.1665 10.125V7.125ZM11.897 2.07975C11.8568 1.90721 11.7567 1.75448 11.6147 1.64864C11.4726 1.54279 11.2976 1.49067 11.1208 1.5015C10.7233 1.524 10.409 1.85175 10.409 2.2545V6.7545C10.412 6.95242 10.3362 7.14341 10.1984 7.28547C10.0605 7.42753 9.87192 7.50902 9.67401 7.512C9.47609 7.51498 9.28509 7.43922 9.14303 7.30138C9.00097 7.16354 8.91949 6.97492 8.91651 6.777V2.25C8.91651 2.05109 8.83749 1.86032 8.69684 1.71967C8.55618 1.57902 8.36542 1.5 8.16651 1.5C7.96759 1.5 7.77683 1.57902 7.63618 1.71967C7.49552 1.86032 7.41651 2.05109 7.41651 2.25V6.79875C7.40425 6.99199 7.31736 7.17291 7.17419 7.30328C7.03102 7.43365 6.84278 7.50326 6.64924 7.49742C6.4557 7.49158 6.272 7.41074 6.13695 7.27197C6.00191 7.13321 5.92609 6.94738 5.92551 6.75375V2.25525C5.92499 2.07055 5.85681 1.89243 5.73386 1.7546C5.61091 1.61677 5.44171 1.52876 5.25826 1.50724C5.07482 1.48572 4.88984 1.53217 4.73833 1.6378C4.58681 1.74344 4.47926 1.90093 4.43601 2.0805C4.41951 2.1495 3.66651 5.355 3.66651 7.5C3.66592 8.17794 3.81878 8.84722 4.11362 9.45769C4.40847 10.0682 4.83765 10.604 5.36901 11.025C5.74101 11.3205 5.91651 11.6423 5.91651 11.9115C5.91639 11.9401 5.91463 11.9686 5.91126 11.997C5.86626 12.375 5.68101 13.9425 5.50701 15.5618C5.33601 17.154 5.16651 18.87 5.16651 19.5C5.16651 20.2956 5.48258 21.0587 6.04519 21.6213C6.60779 22.1839 7.37086 22.5 8.16651 22.5C8.96216 22.5 9.72522 22.1839 10.2878 21.6213C10.8504 21.0587 11.1665 20.2956 11.1665 19.5C11.1665 18.8708 10.997 17.154 10.826 15.5618C10.652 13.9425 10.466 12.3743 10.421 11.997C10.4179 11.9686 10.4164 11.9401 10.4165 11.9115C10.4165 11.6423 10.592 11.3205 10.964 11.025C11.4954 10.604 11.9245 10.0682 12.2194 9.45769C12.5142 8.84722 12.6671 8.17794 12.6665 7.5C12.6665 5.3535 11.9113 2.142 11.897 2.07975ZM11.087 1.50375L11.102 1.503H11.096L11.09 1.50375H11.087Z" fill="#00AF46"/>
</svg>
